<?xml version="1.0" standalone="no"?>
<!DOCTYPE svg PUBLIC "-//W3C//DTD SVG 20010904//EN"
 "http://www.w3.org/TR/2001/REC-SVG-20010904/DTD/svg10.dtd">
<svg version="1.0" xmlns="http://www.w3.org/2000/svg"
 width="515.000000pt" height="515.000000pt" viewBox="0 0 515.000000 515.000000"
 preserveAspectRatio="xMidYMid meet">
<metadata>
Created by potrace 1.11, written by Peter Selinger 2001-2013
</metadata>
<g transform="translate(0.000000,515.000000) scale(0.100000,-0.100000)"
fill="#000000" stroke="none">
<path d="M2399 5146 c-2 -2 -40 -6 -84 -10 -44 -4 -89 -9 -100 -11 -11 -3 -36
-7 -55 -10 -19 -2 -46 -7 -60 -10 -14 -3 -37 -7 -51 -10 -111 -20 -391 -109
-501 -159 -29 -13 -75 -33 -101 -45 -26 -12 -90 -46 -142 -76 -492 -284 -883
-723 -1100 -1235 -33 -76 -105 -284 -111 -320 -3 -14 -9 -36 -14 -50 -8 -23
-23 -90 -36 -166 -3 -16 -7 -36 -9 -44 -2 -8 -7 -42 -11 -75 -3 -33 -8 -69
-11 -80 -3 -11 -6 -117 -8 -235 -2 -230 7 -342 50 -559 101 -522 422 -1071
824 -1411 30 -25 59 -50 65 -56 21 -20 201 -150 255 -184 140 -88 382 -206
521 -253 157 -53 199 -65 288 -82 13 -2 32 -7 42 -10 10 -3 31 -7 46 -10 64
-9 110 -16 121 -20 77 -26 561 -26 703 -1 14 3 43 7 65 11 22 3 56 8 75 11 79
13 301 74 395 109 98 36 316 139 405 191 248 144 487 342 666 550 165 193 333
461 414 664 12 30 28 69 35 85 66 152 142 469 162 670 10 102 10 405 0 510 -7
76 -9 94 -23 175 -12 69 -16 86 -39 185 -183 761 -720 1409 -1441 1737 -209
95 -523 182 -773 214 -43 5 -457 14 -462 10z"/>
</g>
</svg>
